<?xml version="1.0" encoding="utf-8"?>
<?xml-stylesheet type="text/xsl" href="rss1.xsl"?>
<rss version="2.0" xmlns:atom="http://www.w3.org/2005/Atom" xmlns:content="http://purl.org/rss/1.0/modules/content/" xmlns:dc="http://purl.org/dc/elements/1.1/" xmlns:media="http://search.yahoo.com/mrss/">
<channel>
 <title>Getty</title>
 <link>http://www.gettyimg.com/</link>
 <atom:link href="http://www.gettyimg.com/" rel="self" type="application/rss+xml" />

 
                <item>
                <title><![CDATA[【Cinema Center】SERIES - Shogun (2024) | (Season One) | [HEVC, HDR10, Dolby Vision, WEB-DL 2160p, 4k]]]></title>
                <link><![CDATA[https://sharemania.us/threads/shogun-2024-season-one-hevc-hdr10-dolby-vision-web-dl-2160p-4k.244855/]]></link>
                <description><![CDATA[<article>
<blockquote class="messageText SelectQuoteContainer ugc baseHtml">
<div style="text-align: center"><img src="https://i.imgur.com/LWRyRJI.jpg" class="bbCodeImage LbImage" alt="[​IMG]" data-url="https://i.imgur.com/LWRyRJI.jpg" style=""><br>
<br>
<span data-s9e-mediaembed="youtube" style="display:inline-block;width:100%;max-width:640px"><span style="display:block;overflow:hidden;position:relative;padding-bottom:56.25%"><iframe allowfullscreen="" loading="lazy" scrolling="no" style="background:url(https://i.ytimg.com/vi/yOixbB_G-54/hqdefault.jpg) 50% 50% / cover;border:0;height:100%;left:0;position:absolute;width:100%" src="https://www.youtube.com/embed/yOixbB_G-54"></iframe></span></span><br>
<br>
<div class="bbCodeBlock bbCodeQuote">
<aside>
<blockquote class="quoteContainer"><div class="quote"><span style="font-family: 'Book Antiqua'"><span style="font-size: 12px"><i>Shōgun</i> is set in Japan in the year 1600 at the dawn of a century-defining civil war. Producer Hiroyuki Sanada stars as Lord Yoshii Toranaga who is fighting for his life as his enemies on the Council of Regents unite against him, when a mysterious European ship is found marooned in a nearby fishing village. Its English pilot, John Blackthorne (Cosmo Jarvis), comes bearing secrets that could help Toranaga tip the scales of power and devastate the formidable influence of Blackthorne’s own enemies — the Jesuit priests and Portuguese merchants. Toranaga’s and Blackthorne’s fates become inextricably tied to their translator, Toda Mariko (Anna Sawai), a mysterious Christian noblewoman and the last of a disgraced line. While serving her lord amidst this fraught political landscape, Mariko must reconcile her newfound companionship with Blackthorne, her commitment to the faith that saved her and her duty to her late father.<br>
<br>
The series features an acclaimed Japanese cast, unprecedented for an American production, including Tadanobu Asano as “Kashigi Yabushige,” a notorious backstabber and close ally of Toranaga; Hiroto Kanai as “Kashigi Omi,” the young leader of the fishing village where Blackthorne’s ship was found; Takehiro Hira as “Ishido Kazunari,” a powerful bureaucrat who is Toranaga’s chief rival; Moeka Hoshi as “Usami Fuji,” a widow who must find new purpose amidst her lord’s fight; Tokuma Nishioka as “Toda Hiromatsu,” Toranaga’s trusted general and closest friend; Shinnosuke Abe as “Buntaro” (“Toda Hirokatsu”), Mariko’s jealous husband; Yuki Kura as “Yoshii Nagakado,” the brash son of Toranaga with a strong desire to prove himself; Yuka Kouri as “Kiku,” a courtesan renowned for her artistry throughout Japan; and Fumi Nikaido as “Ochiba no Kata,” the revered mother of the heir who will stop at nothing to put an end to Toranaga and his threat to her son’s power.</span></span></div><div class="quoteExpand quoteCut">Click to expand...</div></blockquote>
</aside>
</div>
<div class="ToggleTriggerAnchor bbCodeSpoilerContainer">
<button type="button" class="button bbCodeSpoilerButton ToggleTrigger Tooltip JsOnly" data-target="> .SpoilerTarget"><span>Spoiler: <span class="SpoilerTitle">Media Information</span></span></button>
<div class="SpoilerTarget bbCodeSpoilerText">
<div class="bbCodeBlock bbCodeQuote">
<aside>
<blockquote class="quoteContainer"><div class="quote"><span style="font-size: 12px">Format: Matroska<br>
Format version: Version 4<br>
File size: 6.46 GiB<br>
Duration: 1 h 2 min<br>
Overall bit rate: 14.8 Mb/s<br>
Frame rate: 24.000 FPS<br>
<br>
Encoded date: 2024-05-21 11:13:24 UTC<br>
Writing application: mkvmerge v84.0 ('Sleeper') 64-bit<br>
Writing library: libebml v1.4.5 + libmatroska v1.7.1<br>
Cover: Yes<br>
Attachments: Cover.Shôgun.jpg<br>
Video<br>
ID: 1<br>
Format: HEVC<br>
Format/Info: High Efficiency Video Coding<br>
Format profile: Main 10@L5@High<br>
HDR format: Dolby Vision, Version 1.0, dvhe.08.06, BL+RPU, HDR10 compatible / SMPTE ST 2086, HDR10 compatible<br>
Codec ID: V_MPEGH/ISO/HEVC<br>
Duration: 1 h 2 min<br>
Bit rate: 14.6 Mb/s<br>
Width: 3 840 pixels<br>
Height: 2 160 pixels<br>
Display aspect ratio: 16:9<br>
Frame rate mode: Constant<br>
Frame rate: 24.000 FPS<br>
Color space: YUV<br>
Chroma subsampling: 4:2:0<br>
Bit depth: 10 bits<br>
Bits/(Pixel*Frame): 0.073<br>
Stream size: 6.35 GiB (98%)<br>
Title: A Dream of a Dream<br>
Language: English<br>
Default: Yes<br>
Forced: Yes<br>
Color range: Limited<br>
Color primaries: BT.2020<br>
Transfer characteristics: PQ<br>
Matrix coefficients: BT.2020 non-constant<br>
Mastering display color primaries: Display P3<br>
Mastering display luminance: min: 0.0001 cd/m2, max: 1000 cd/m2<br>
Audio<br>
ID: 2<br>
Format: E-AC-3<br>
Format/Info: Enhanced AC-3<br>
Commercial name: Dolby Digital Plus<br>
Codec ID: A_EAC3<br>
Duration: 1 h 2 min<br>
Bit rate mode: Constant<br>
Bit rate: 256 kb/s<br>
Channel(s): 6 channels<br>
Channel layout: L R C LFE Ls Rs<br>
Sampling rate: 48.0 kHz<br>
Frame rate: 31.250 FPS (1536 SPF)<br>
Compression mode: Lossy<br>
Stream size: 114 MiB (2%)<br>
Language: English<br>
Service kind: Complete Main<br>
Default: Yes<br>
Forced: Yes</span></div><div class="quoteExpand">Click to expand...</div></blockquote>
</aside>
</div></div>
</div><br>
<img src="https://i.imgur.com/yo05BYI.jpg" class="bbCodeImage LbImage" alt="[​IMG]" data-url="https://i.imgur.com/yo05BYI.jpg" style=""><br>
<br>
<span data-s9e-mediaembed="youtube" style="display:inline-block;width:100%;max-width:640px"><span style="display:block;overflow:hidden;position:relative;padding-bottom:56.25%"><iframe allowfullscreen="" loading="lazy" scrolling="no" style="background:url(https://i.ytimg.com/vi/dz9Ijf_PXlI/hqdefault.jpg) 50% 50% / cover;border:0;height:100%;left:0;position:absolute;width:100%" src="https://www.youtube.com/embed/dz9Ijf_PXlI"></iframe></span></span><br>
<br>
<div class="bbCodeBlock bbCodeVfcHH HiddenContent">
<div class="attribution type">Hidden Content:</div>
<blockquote>You must either reply or click 'Like' to see the hidden information contained here.</blockquote>
</div></div>
<div class="messageTextEndMarker">&nbsp;</div>
</blockquote>
</article>]]></description>
                <author><![CDATA[WithLoveSNSD]]></author>
                </item>

                </channel></rss>